<?xml version="1.0" encoding="UTF-8"?>
<svg version="1.1" xmlns="http://www.w3.org/2000/svg" width="512" height="512">
<path d="M0 0 C0.90045044 -0.00705963 1.80090088 -0.01411926 2.7286377 -0.02139282 C40.4862242 -0.25025378 40.4862242 -0.25025378 57.20703125 3.203125 C58.19010254 3.40180176 59.17317383 3.60047852 60.18603516 3.80517578 C92.49323929 10.52430922 124.31832828 22.79426967 151.20703125 42.203125 C152.20814941 42.91782959 152.20814941 42.91782959 153.22949219 43.64697266 C171.58696739 56.83081961 188.14417969 71.47058772 202.20703125 89.203125 C202.9340625 90.06292969 203.66109375 90.92273438 204.41015625 91.80859375 C214.61516768 103.88690273 222.86300375 117.23110491 230.20703125 131.203125 C230.60390137 131.95207031 231.00077148 132.70101562 231.40966797 133.47265625 C249.50954528 168.10724893 257.67117561 205.9957168 257.51953125 244.890625 C257.51679703 246.3473764 257.51679703 246.3473764 257.51400757 247.83355713 C257.46974553 261.8356453 257.05574895 275.45176775 254.20703125 289.203125 C254.04605957 290.05213379 253.88508789 290.90114258 253.71923828 291.77587891 C247.46667095 324.56431798 234.80449543 357.02881577 215.20703125 384.203125 C214.73587891 384.86521973 214.26472656 385.52731445 213.77929688 386.20947266 C196.9908435 409.67184057 177.37785041 429.07848294 154.20703125 446.203125 C153.61067871 446.6455957 153.01432617 447.08806641 152.39990234 447.54394531 C134.03164075 460.97737043 112.73936681 471.03274284 91.20703125 478.203125 C90.38187012 478.48091797 89.55670898 478.75871094 88.70654297 479.04492188 C70.26807972 485.15870918 51.51578075 488.41134849 32.20703125 490.203125 C32.23639771 491.10260864 32.23639771 491.10260864 32.26635742 492.02026367 C32.38290286 498.11577492 31.76643123 502.14442792 28.20703125 507.203125 C22.90364038 512.12770223 19.34147024 512.55681955 12.2578125 512.48046875 C7.76888981 512.07238487 5.74595552 511.00477338 2.20703125 508.203125 C-2.70155559 502.00280478 -2.82357979 497.779357 -2.79296875 490.203125 C-3.70691406 490.18894531 -4.62085938 490.17476563 -5.5625 490.16015625 C-67.08323405 488.31840743 -126.45527015 456.78331771 -168.36035156 412.74951172 C-172.06774241 408.74770299 -175.44926693 404.50904317 -178.79296875 400.203125 C-179.5921875 399.19765625 -180.39140625 398.1921875 -181.21484375 397.15625 C-198.53139836 375.2375023 -211.96941617 350.74679085 -220.79296875 324.203125 C-221.07076172 323.37264648 -221.34855469 322.54216797 -221.63476562 321.68652344 C-224.63160917 312.57964475 -227.11978865 303.40898607 -229.04296875 294.015625 C-229.26968262 292.91432251 -229.26968262 292.91432251 -229.50097656 291.79077148 C-232.45064433 276.41155001 -233.16798142 261.20110974 -233.10546875 245.578125 C-233.1033136 244.60757172 -233.10115845 243.63701843 -233.09893799 242.63705444 C-233.04790215 228.30881602 -232.70055313 214.28126718 -229.79296875 200.203125 C-229.59429199 199.22005371 -229.39561523 198.23698242 -229.19091797 197.22412109 C-220.33047601 154.62099229 -201.48000659 114.6142913 -171.875 82.46875 C-169.96856435 80.39420464 -168.12531265 78.28046569 -166.29296875 76.140625 C-159.13922387 67.96960447 -151.31510406 60.91856763 -142.79296875 54.203125 C-141.80554688 53.41035156 -140.818125 52.61757813 -139.80078125 51.80078125 C-100.73175574 20.96450551 -50.17960081 0.2635762 0 0 Z " fill="#DAB5FD" transform="translate(243.79296875,-0.203125)"/>
<path d="M0 0 C5.65661909 1.56265245 10.32857278 4.30507345 15.3125 7.3125 C16.63048584 8.10720703 16.63048584 8.10720703 17.97509766 8.91796875 C26.80489859 14.34287619 34.980456 20.44947154 43 27 C43.62632324 27.51062988 44.25264648 28.02125977 44.89794922 28.54736328 C57.19744929 38.65667497 68.10099684 49.51786281 78 62 C78.72703125 62.85980469 79.4540625 63.71960938 80.203125 64.60546875 C90.40813643 76.68377773 98.6559725 90.02797991 106 104 C106.39687012 104.74894531 106.79374023 105.49789062 107.20263672 106.26953125 C125.30251403 140.90412393 133.46414436 178.7925918 133.3125 217.6875 C133.30976578 219.1442514 133.30976578 219.1442514 133.30697632 220.63043213 C133.26271428 234.6325203 132.8487177 248.24864275 130 262 C129.83902832 262.84900879 129.67805664 263.69801758 129.51220703 264.57275391 C123.2596397 297.36119298 110.59746418 329.82569077 91 357 C90.29327148 357.99314209 90.29327148 357.99314209 89.57226562 359.00634766 C72.78381225 382.46871557 53.17081916 401.87535794 30 419 C29.40364746 419.4424707 28.80729492 419.88494141 28.19287109 420.34082031 C9.8246095 433.77424543 -11.46766444 443.82961784 -33 451 C-33.82516113 451.27779297 -34.65032227 451.55558594 -35.50048828 451.84179688 C-53.93895153 457.95558418 -72.6912505 461.20822349 -92 463 C-91.98042236 463.59965576 -91.96084473 464.19931152 -91.94067383 464.81713867 C-91.82412839 470.91264992 -92.44060002 474.94130292 -96 480 C-101.30339087 484.92457723 -104.86556101 485.35369455 -111.94921875 485.27734375 C-116.43814144 484.86925987 -118.46107573 483.80164838 -122 481 C-126.33696821 475.52172437 -127.15759522 471.74828573 -126.921875 464.90625 C-126.89609375 463.71 -126.8703125 462.51375 -126.84375 461.28125 C-126.78201338 458.79120637 -126.70429448 456.30149959 -126.609375 453.8125 C-126.42538542 443.04910928 -129.22400729 435.18148934 -135 426.1875 C-142.41787987 414.11903224 -143.83253804 402.80037637 -143 389 C-142.95488281 388.08992188 -142.90976563 387.17984375 -142.86328125 386.2421875 C-142.56306642 382.41278051 -141.76154264 379.16614434 -140.4375 375.5625 C-136.87975173 365.13954905 -139.95266044 357.76413044 -144.2734375 348.1484375 C-149.64585752 335.70826191 -150.40803346 319.20109625 -146.4375 306.25 C-139.95596214 290.63538606 -129.09817005 280.14557046 -114 273 C-99.62709712 267.82073699 -83.2431379 266.83274408 -68.9453125 272.8671875 C-68.10613281 273.27324219 -68.10613281 273.27324219 -67.25 273.6875 C-62.32531748 275.67631409 -57.68062008 275.91273149 -52.6015625 274.18334961 C-50.14634962 273.07233569 -47.76017248 271.87913908 -45.375 270.625 C-37.65429619 266.67831435 -31.05785991 263.7009869 -22.1875 263.8125 C-20.970625 263.81636719 -19.75375 263.82023437 -18.5 263.82421875 C-15.40538453 263.97964029 -12.70067976 264.47057502 -9.6875 265.125 C-7.31610948 265.54726859 -7.31610948 265.54726859 -5 265 C-2.29814134 262.76144082 -0.24646588 260.38894544 1.89453125 257.61328125 C4.03686074 254.95424892 6.3174739 253.09045752 9 251 C10.26675622 248.46648756 10.18597234 246.18047638 10.28955078 243.38964844 C10.86220997 228.21254377 13.94574936 214.08403771 24.875 202.75 C27.94458862 199.45226628 29.06735155 196.92475219 29.17773438 192.40161133 C28.99339783 189.91078915 28.42437662 188.12045208 27.515625 185.8046875 C25.83499561 180.9769777 25.5375106 176.64361533 25.625 171.5625 C25.63152588 170.73500244 25.63805176 169.90750488 25.64477539 169.05493164 C25.79507121 162.19591585 26.9156404 156.16871919 30 150 C30.96535778 143.65622027 28.54150598 139.57297705 25.5078125 134.0625 C23.85922397 130.71407149 22.92843511 127.60557323 22 124 C20.90300781 124.56589844 19.80601562 125.13179688 18.67578125 125.71484375 C17.22151727 126.45604926 15.76708107 127.19691695 14.3125 127.9375 C13.59126953 128.31068359 12.87003906 128.68386719 12.12695312 129.06835938 C11.42119141 129.42607422 10.71542969 129.78378906 9.98828125 130.15234375 C9.02208862 130.6472229 9.02208862 130.6472229 8.03637695 131.15209961 C3.85396253 132.8935605 -0.18724194 133.11826244 -4.67578125 133.140625 C-5.75150391 133.15996094 -6.82722656 133.17929688 -7.93554688 133.19921875 C-10.17495121 133.232894 -12.41464088 133.2512883 -14.65429688 133.25390625 C-23.29615973 133.44996045 -28.33301382 135.22997454 -34.36328125 141.4296875 C-35.00652344 142.23664063 -35.64976562 143.04359375 -36.3125 143.875 C-40.91678772 149.19129097 -45.8284091 152.68089904 -52 156 C-53.18529297 156.65162109 -53.18529297 156.65162109 -54.39453125 157.31640625 C-61.71970407 160.80284837 -69.06780847 160.38074519 -77 160 C-76.63390625 159.46117187 -76.2678125 158.92234375 -75.890625 158.3671875 C-65.44369089 142.49779712 -56.97669124 125.93794948 -50.71777344 107.99951172 C-50.15328756 106.42701534 -49.51541957 104.88084996 -48.8515625 103.34765625 C-46.2564772 96.19331558 -46.81662905 88.37335796 -46.8125 80.875 C-46.80025391 79.72773437 -46.78800781 78.58046875 -46.77539062 77.3984375 C-46.75792365 67.05798964 -47.42234135 56.75637744 -51.4375 47.125 C-52.07751953 45.50851563 -52.07751953 45.50851563 -52.73046875 43.859375 C-53.88215292 41.08606133 -53.88215292 41.08606133 -55.23828125 39.015625 C-56.25 37.375 -56.25 37.375 -57 34 C-55.22205383 29.89233127 -52.75540987 26.50782876 -50 23 C-49.49082031 22.33484375 -48.98164063 21.6696875 -48.45703125 20.984375 C-43.10650825 14.87735132 -33.12146151 9.28315962 -25 8 C-22.58397405 7.89979616 -20.16713254 7.81850173 -17.75 7.75 C-12.05334511 7.49759479 -7.97450565 6.60927262 -3.41796875 3.05859375 C-2 2 -2 2 0 2 C0 1.34 0 0.68 0 0 Z " fill="#FBDFD3" transform="translate(368,27)"/>
<path d="M0 0 C0.92941406 0.48210937 1.85882813 0.96421875 2.81640625 1.4609375 C4.06493755 2.09928433 5.31364495 2.73728678 6.5625 3.375 C7.47612305 3.85066406 7.47612305 3.85066406 8.40820312 4.3359375 C17.99418007 9.20500515 26.80808478 9.33262822 37.39648438 9.30273438 C46.15500517 9.4595883 51.21330873 11.10529908 57.328125 17.39453125 C58.27945313 18.59142578 58.27945313 18.59142578 59.25 19.8125 C67.28042962 29.03924363 77.00042322 34.61741255 89 37 C91.14436866 37.11501381 93.29064116 37.19957933 95.4375 37.25 C98.8243809 37.42518349 100.44941027 37.56013773 103.1171875 39.69140625 C107.04354386 44.60387515 107.04354386 44.60387515 106.9375 48.00390625 C105.5936031 50.86528673 103.67856318 52.19344601 101.1875 54.125 C100.18332031 54.91519531 99.17914063 55.70539063 98.14453125 56.51953125 C97.62068848 56.92896973 97.0968457 57.3384082 96.55712891 57.76025391 C94.10671692 59.71120907 91.75084459 61.7718368 89.375 63.8125 C80.25795277 71.40613317 70.5325039 78.20410515 60.46484375 84.4765625 C59.08522461 85.34317505 59.08522461 85.34317505 57.67773438 86.22729492 C55.87793316 87.35056715 54.06818902 88.45809228 52.24804688 89.5480957 C51.43271484 90.05687256 50.61738281 90.56564941 49.77734375 91.08984375 C49.04765381 91.53191162 48.31796387 91.97397949 47.56616211 92.42944336 C45.71557547 93.94948741 45.71557547 93.94948741 45.76391602 96.68188477 C45.88077759 97.82935181 45.88077759 97.82935181 46 99 C49.99529282 100.75792884 53.91381203 101.70235838 58.1875 102.5625 C64.79613357 103.89806678 64.79613357 103.89806678 67 105 C67.06058594 106.21558594 67.12117187 107.43117188 67.18359375 108.68359375 C67.26798332 110.26824228 67.3526321 111.85287702 67.4375 113.4375 C67.47681641 114.23994141 67.51613281 115.04238281 67.55664062 115.86914062 C67.4054296 119.75239561 67.4054296 119.75239561 69 123 C74.54959348 124.02835918 77.76794434 121.60493815 82.18164062 118.63208008 C83.07044922 118.01099365 83.95925781 117.38990723 84.875 116.75 C85.80248047 116.11537842 86.72996094 115.48075684 87.68554688 114.8269043 C104.03460242 103.55950203 119.25875219 91.29378679 134 78 C137.62041445 79.54326422 140.03404768 81.73902705 142.875 84.4375 C154.67140062 95.39458361 167.83015238 104.77815379 181 114 C181.68255859 114.47872559 182.36511719 114.95745117 183.06835938 115.45068359 C184.95012937 116.75705551 186.84549933 118.03956232 188.75 119.3125 C189.81734375 120.03050781 190.8846875 120.74851562 191.984375 121.48828125 C195.30646815 123.15363105 197.33428556 123.40194237 201 123 C203.27102528 120.72897472 202.35559624 114.41141456 202.4296875 111.16992188 C202.5141348 109.10624096 202.74813769 107.04999406 203 105 C205.78313584 103.14457611 206.84633727 102.67728209 209.9765625 102.18359375 C210.729375 102.05919922 211.4821875 101.93480469 212.2578125 101.80664062 C213.03898437 101.68482422 213.82015625 101.56300781 214.625 101.4375 C219.72239947 101.05065131 219.72239947 101.05065131 224 99 C224.70647782 96.67661986 224.70647782 96.67661986 224 94 C221.53695172 92.04867389 219.25250596 90.51362764 216.5625 88.9375 C214.99032994 87.96784912 213.42006818 86.9950985 211.8515625 86.01953125 C210.63968262 85.27243896 210.63968262 85.27243896 209.40332031 84.51025391 C194.48733994 75.13700578 180.53948998 64.07345205 167.48046875 52.26953125 C165.81428034 50.78912515 165.81428034 50.78912515 163 49 C164.01909227 44.50807873 165.18312167 40.78816577 169 38 C172.31274156 37.29430561 175.48395114 36.916784 178.84863281 36.62524414 C184.82362167 36.10192222 189.65468598 34.81472516 195 32 C195.87914062 31.53980469 196.75828125 31.07960937 197.6640625 30.60546875 C203.91973682 26.98422629 208.54037512 22.68705191 213.12084961 17.17578125 C216.77771285 12.85792088 219.90194954 10.31535507 225.6574707 9.72949219 C228.85705664 9.5868894 232.04737282 9.52634358 235.25 9.5 C246.19436562 9.40868825 254.85523405 7.92458684 264.625 2.8125 C265.64851563 2.28269531 266.67203125 1.75289062 267.7265625 1.20703125 C268.47679687 0.80871094 269.22703125 0.41039062 270 0 C270.24234375 0.85722656 270.4846875 1.71445313 270.734375 2.59765625 C272.80574653 10.02938919 272.80574653 10.02938919 276.25 16.875 C278.36845567 20.65795655 278.53499357 22.7200514 278 27 C277.06421005 29.35981813 276.06652192 31.69631264 275 34 C273.71917124 38.69350672 273.78023807 43.41946881 273.75 48.25 C273.729375 49.05824219 273.70875 49.86648437 273.6875 50.69921875 C273.65414386 55.91111633 274.42047869 60.07591081 276.34033203 64.9284668 C277.55733452 68.7501789 277.32773193 72.2414973 276 76 C274.48297211 77.99355826 272.79255576 79.71163684 271.046875 81.5078125 C263.82627085 90.29931145 259.22108181 101.80107181 258.8515625 113.109375 C258.82247803 113.86033447 258.79339355 114.61129395 258.76342773 115.38500977 C258.7139677 116.8848735 258.68881798 118.38579826 258.69165039 119.88647461 C258.54402019 125.59812315 257.04469393 127.96694548 253 132 C251.65740321 133.24423805 250.28529294 134.45805173 248.875 135.625 C246.70760348 137.42132474 245.08619491 138.86967879 243.52734375 141.2265625 C242 143 242 143 240.01171875 143.171875 C239.24472656 143.03265625 238.47773438 142.8934375 237.6875 142.75 C223.78004787 140.82684432 213.07183507 142.20503545 200.63671875 148.7878418 C189.65443113 154.58029302 189.65443113 154.58029302 183 153 C179.39042644 151.8431378 175.85873532 150.58071391 172.33203125 149.19140625 C158.17411488 144.12907976 142.05701123 146.91121686 128.75 153.125 C115.13999942 160.39484353 105.78661397 171.3313443 101 186 C96.41946343 201.91334285 100.2970542 219.39149899 107.3125 233.875 C110.21551106 240.08225129 109.79958293 246.1945659 107.5625 252.5625 C107.28921875 253.30628906 107.0159375 254.05007813 106.734375 254.81640625 C105.4862208 258.52767327 105.19314656 262.10395799 105 266 C104.88591797 267.89105469 104.88591797 267.89105469 104.76953125 269.8203125 C104.14934866 284.47593888 108.42133381 296.10516783 115.87670898 308.54711914 C120.29864145 315.92715227 121.28339745 321.83372192 121.125 330.375 C121.11597656 331.30183594 121.10695312 332.22867187 121.09765625 333.18359375 C121.07422937 335.45600077 121.04142748 337.7278618 121 340 C58.68759466 339.10400463 -1.13694059 308.26761925 -44.0390625 264.15234375 C-48.31364112 259.660622 -52.20137757 254.89750963 -56 250 C-56.85397353 248.91391061 -57.70814821 247.82797936 -58.5625 246.7421875 C-63.3119472 240.66948493 -67.86126959 234.51092955 -72 228 C-71.34 227.67 -70.68 227.34 -70 227 C-67.57286636 227.86937672 -65.23870379 228.79390002 -62.875 229.8125 C-49.86986598 235.38425601 -33.92248143 238.14225942 -20.0078125 234.01953125 C-13.93663815 231.55926733 -8.56510599 228.60850998 -5.125 222.875 C-3.12456822 220.34448535 -2.0057562 220.00116238 1.23046875 219.34765625 C3.17208808 219.13983767 5.11389212 218.93269024 7.05810547 218.75073242 C15.9377401 217.84938366 25.50865123 214.38693029 32 208 C38.35224798 200.0814443 40.54442257 191.17955887 40.375 181.1875 C40.3586853 179.8715686 40.3586853 179.8715686 40.34204102 178.52905273 C39.9200617 161.26930252 32.71142451 147.55224473 21 135 C18.89707608 133.03183343 16.76731139 131.15442531 14.53125 129.33984375 C13 128 13 128 12 126 C11.88709534 124.13080061 11.77990108 122.26096622 11.71044922 120.38964844 C11.13779003 105.21254377 8.05425064 91.08403771 -2.875 79.75 C-5.94458862 76.45226628 -7.06735155 73.92475219 -7.17773438 69.40161133 C-6.99339783 66.91078915 -6.42437662 65.12045208 -5.515625 62.8046875 C-3.83499561 57.9769777 -3.5375106 53.64361533 -3.625 48.5625 C-3.63152588 47.73500244 -3.63805176 46.90750488 -3.64477539 46.05493164 C-3.79507121 39.19591585 -4.9156404 33.16871919 -8 27 C-8.97451243 20.59606118 -6.45010612 16.54707398 -3.46875 10.95703125 C-1.65896386 7.31339267 -0.76517938 3.97893278 0 0 Z " fill="#1E2E79" transform="translate(121,150)"/>
<path d="M0 0 C1.36318359 0.79664062 1.36318359 0.79664062 2.75390625 1.609375 C10.60032495 6.06294706 17.82487049 9.13536875 26.66015625 11.015625 C31.53527559 12.45250228 35.75824585 14.7701169 38.375 19.25 C38.98021484 20.28253906 38.98021484 20.28253906 39.59765625 21.3359375 C40.71133039 23.45160815 41.77170941 25.57324022 42.80859375 27.7265625 C49.01049926 41.14817552 49.01049926 41.14817552 59.2265625 51.515625 C59.81179687 52.00546875 60.39703125 52.4953125 61 53 C61.19064501 59.0053178 59.72939608 62.83962904 56.9375 68.125 C54.53365354 72.68421841 53.07426946 75.75419363 54 81 C54.93578995 83.35981813 55.93347808 85.69631264 57 88 C58.28082876 92.69350672 58.21976193 97.41946881 58.25 102.25 C58.270625 103.05824219 58.29125 103.86648437 58.3125 104.69921875 C58.34585614 109.91111633 57.57952131 114.07591081 55.65966797 118.9284668 C54.44266548 122.7501789 54.67226807 126.2414973 56 130 C57.51702789 131.99355826 59.20744424 133.71163684 60.953125 135.5078125 C68.17372915 144.29931145 72.77891819 155.80107181 73.1484375 167.109375 C73.19206421 168.23581421 73.19206421 168.23581421 73.23657227 169.38500977 C73.2860323 170.8848735 73.31118202 172.38579826 73.30834961 173.88647461 C73.45552483 179.58052026 74.96134641 181.98503353 79 186 C80.67776949 187.49685804 80.67776949 187.49685804 82.3125 188.6875 C93.4801245 198.0585936 100.80972407 212.94660416 102.23535156 227.38330078 C102.95077485 240.10393856 102.27692742 251.48427664 94.25 262 C86.53976066 269.90543527 74.39368581 273.93732338 63.5625 274.3125 C60.15319282 274.53676342 60.15319282 274.53676342 57.40234375 276.3984375 C56.45303873 277.60952858 55.52764039 278.83967832 54.625 280.0859375 C49.94237806 285.60152585 41.76982842 289.52762806 34.62597656 290.23510742 C21.45918098 290.90304049 10.24732242 289.95631791 -2 285 C-2.80985352 284.76692139 -3.61970703 284.53384277 -4.45410156 284.29370117 C-10.93244365 282.23818983 -13.59376585 279.68239909 -16.73876953 273.69335938 C-17.19622559 272.74267578 -17.65368164 271.79199219 -18.125 270.8125 C-18.63015137 269.81927734 -19.13530273 268.82605469 -19.65576172 267.80273438 C-20.66789481 265.7984721 -21.66576886 263.78693812 -22.6484375 261.76806641 C-23.79006956 259.42994786 -24.97203169 257.12435544 -26.1875 254.82421875 C-42.88735995 222.43086235 -49.45700856 185.49016216 -49.3125 149.375 C-49.31034485 148.40444672 -49.3081897 147.43389343 -49.30596924 146.43392944 C-49.2549334 132.10569102 -48.90758438 118.07814218 -46 104 C-45.80132324 103.01692871 -45.60264648 102.03385742 -45.39794922 101.02099609 C-37.63226653 63.68173231 -22.17619813 30.84322602 0 0 Z " fill="#FEAA7A" transform="translate(60,96)"/>
<path d="M0 0 C5.65661909 1.56265245 10.32857278 4.30507345 15.3125 7.3125 C16.19115723 7.84230469 17.06981445 8.37210938 17.97509766 8.91796875 C26.80489859 14.34287619 34.980456 20.44947154 43 27 C43.62632324 27.51062988 44.25264648 28.02125977 44.89794922 28.54736328 C57.19744929 38.65667497 68.10099684 49.51786281 78 62 C78.72703125 62.85980469 79.4540625 63.71960938 80.203125 64.60546875 C90.40813643 76.68377773 98.6559725 90.02797991 106 104 C106.39687012 104.74894531 106.79374023 105.49789062 107.20263672 106.26953125 C112.96005148 117.28649626 117.48921216 128.60574316 121.4375 140.375 C121.85056396 141.59783691 122.26362793 142.82067383 122.68920898 144.08056641 C125.47633817 152.64173372 127.41425341 161.15073763 129 170 C127.31003906 169.51466797 127.31003906 169.51466797 125.5859375 169.01953125 C110.30309003 165.21730941 96.273062 168.45362797 82.73120117 175.66235352 C79.92564373 177.14344992 78.22633056 178 75 178 C75.0825 179.27875 75.165 180.5575 75.25 181.875 C75.25 186.5859423 74.02808918 189.97783958 72.15234375 194.25 C68.05094745 204.03773897 65.77598862 213.57937118 66.078125 224.1796875 C66.10538426 225.76430244 66.13138687 227.3489394 66.15625 228.93359375 C66.19940568 231.40474662 66.24999213 233.87473085 66.32226562 236.34521484 C66.78674232 252.97679821 66.78674232 252.97679821 62.34130859 258.63696289 C58.4386741 262.60281808 54.47229487 265.34346076 49.75 268.25 C44.71560375 271.37077697 40.53059301 274.96107936 36.2890625 279.08203125 C31.76840746 282.86981559 27.29556785 283.56886413 21.54296875 283.44140625 C17.05664442 282.66267407 14.35439948 279.90968742 11 277 C5.22423633 272.61264106 -0.06018976 269.18475507 -7 267 C-2.76225817 261.75858248 1.83675038 257.33759048 6.92578125 252.91796875 C9.78739113 250.2719227 9.9712249 249.47638785 10.2109375 245.5078125 C10.23687988 244.80881836 10.26282227 244.10982422 10.28955078 243.38964844 C10.86220997 228.21254377 13.94574936 214.08403771 24.875 202.75 C27.94458862 199.45226628 29.06735155 196.92475219 29.17773438 192.40161133 C28.99339783 189.91078915 28.42437662 188.12045208 27.515625 185.8046875 C25.83499561 180.9769777 25.5375106 176.64361533 25.625 171.5625 C25.63152588 170.73500244 25.63805176 169.90750488 25.64477539 169.05493164 C25.79507121 162.19591585 26.9156404 156.16871919 30 150 C30.96535778 143.65622027 28.54150598 139.57297705 25.5078125 134.0625 C23.85922397 130.71407149 22.92843511 127.60557323 22 124 C20.90300781 124.56589844 19.80601562 125.13179688 18.67578125 125.71484375 C17.22151727 126.45604926 15.76708107 127.19691695 14.3125 127.9375 C13.59126953 128.31068359 12.87003906 128.68386719 12.12695312 129.06835938 C11.42119141 129.42607422 10.71542969 129.78378906 9.98828125 130.15234375 C9.02208862 130.6472229 9.02208862 130.6472229 8.03637695 131.15209961 C3.85396253 132.8935605 -0.18724194 133.11826244 -4.67578125 133.140625 C-6.28936523 133.16962891 -6.28936523 133.16962891 -7.93554688 133.19921875 C-10.17495121 133.232894 -12.41464088 133.2512883 -14.65429688 133.25390625 C-23.29615973 133.44996045 -28.33301382 135.22997454 -34.36328125 141.4296875 C-35.00652344 142.23664063 -35.64976562 143.04359375 -36.3125 143.875 C-40.91678772 149.19129097 -45.8284091 152.68089904 -52 156 C-53.18529297 156.65162109 -53.18529297 156.65162109 -54.39453125 157.31640625 C-61.71970407 160.80284837 -69.06780847 160.38074519 -77 160 C-76.63390625 159.46117187 -76.2678125 158.92234375 -75.890625 158.3671875 C-65.44369089 142.49779712 -56.97669124 125.93794948 -50.71777344 107.99951172 C-50.15328756 106.42701534 -49.51541957 104.88084996 -48.8515625 103.34765625 C-46.2564772 96.19331558 -46.81662905 88.37335796 -46.8125 80.875 C-46.79413086 79.15410156 -46.79413086 79.15410156 -46.77539062 77.3984375 C-46.75792365 67.05798964 -47.42234135 56.75637744 -51.4375 47.125 C-52.07751953 45.50851563 -52.07751953 45.50851563 -52.73046875 43.859375 C-53.88215292 41.08606133 -53.88215292 41.08606133 -55.23828125 39.015625 C-56.25 37.375 -56.25 37.375 -57 34 C-55.22205383 29.89233127 -52.75540987 26.50782876 -50 23 C-49.49082031 22.33484375 -48.98164063 21.6696875 -48.45703125 20.984375 C-43.10650825 14.87735132 -33.12146151 9.28315962 -25 8 C-22.58397405 7.89979616 -20.16713254 7.81850173 -17.75 7.75 C-12.05334511 7.49759479 -7.97450565 6.60927262 -3.41796875 3.05859375 C-2 2 -2 2 0 2 C0 1.34 0 0.68 0 0 Z " fill="#FBDFD3" transform="translate(368,27)"/>
<path d="M0 0 C0.90045044 -0.00705963 1.80090088 -0.01411926 2.7286377 -0.02139282 C40.4862242 -0.25025378 40.4862242 -0.25025378 57.20703125 3.203125 C58.19010254 3.40180176 59.17317383 3.60047852 60.18603516 3.80517578 C82.67312104 8.48195716 103.71414222 15.87298724 124.20703125 26.203125 C124.20703125 27.193125 124.20703125 28.183125 124.20703125 29.203125 C117.91836337 35.15146497 111.17611826 35.69055783 102.890625 35.94921875 C92.15346999 36.68931957 82.55872375 42.27674492 75.39453125 50.140625 C72.51300486 53.61856034 70.29085099 57.2021911 68.20703125 61.203125 C67.54703125 61.203125 66.88703125 61.203125 66.20703125 61.203125 C64.9453125 59.69921875 64.9453125 59.69921875 63.51953125 57.640625 C54.23004078 44.94871874 39.86877465 35.85296542 24.20703125 33.203125 C11.61538076 32.16605758 -1.1047613 32.00293229 -12.79296875 37.203125 C-13.78941406 37.60402344 -14.78585938 38.00492188 -15.8125 38.41796875 C-31.7337876 45.46911666 -42.71556719 59.17383925 -49.06494141 75.09863281 C-52.25687543 84.32548435 -53.0259257 94.53838252 -53.79296875 104.203125 C-61.02351087 101.642308 -66.20893521 97.49870401 -70.94921875 91.453125 C-74.67471468 86.31798947 -74.67471468 86.31798947 -80.1640625 83.80078125 C-82.94573056 84.25920015 -85.20665882 85.07847778 -87.79296875 86.203125 C-88.76621094 86.59628906 -89.73945313 86.98945312 -90.7421875 87.39453125 C-102.48951467 92.67405985 -110.71308836 100.30008423 -115.79296875 112.203125 C-118.82715523 120.7876526 -117.56075961 133.64939948 -114.79296875 142.203125 C-114.59977051 142.80495605 -114.40657227 143.40678711 -114.20751953 144.02685547 C-112.78472386 148.436155 -111.30474152 152.82360007 -109.79296875 157.203125 C-124.93754573 151.58712194 -134.69145454 140.1263253 -141.31713867 125.84033203 C-142.08016047 124.15159585 -142.82829964 122.45603896 -143.55981445 120.75341797 C-145.9852977 115.27073938 -148.21836374 111.80141778 -153.8984375 109.26171875 C-154.58550781 109.05675781 -155.27257812 108.85179688 -155.98046875 108.640625 C-156.76035156 108.39828125 -157.54023438 108.1559375 -158.34375 107.90625 C-159.96149748 107.44182489 -161.58397964 106.99355184 -163.2109375 106.5625 C-169.98835319 104.70921622 -175.74458755 101.75626149 -181.79296875 98.203125 C-181.79296875 88.41796877 -167.44113278 77.22871727 -160.79296875 70.203125 C-160.15488281 69.5225 -159.51679688 68.841875 -158.859375 68.140625 C-153.9111908 63.01444856 -148.36814355 58.6240644 -142.79296875 54.203125 C-141.80296875 53.40777344 -140.81296875 52.61242188 -139.79296875 51.79296875 C-100.71266181 20.96837665 -50.18479438 0.26360348 0 0 Z " fill="#FEC6AA" transform="translate(243.79296875,-0.203125)"/>
<path d="M0 0 C0.08451416 0.59200195 0.16902832 1.18400391 0.25610352 1.79394531 C3.29458545 22.44845903 9.02204728 40.67177217 19 59 C19.32613281 59.61069336 19.65226562 60.22138672 19.98828125 60.85058594 C24.6215107 69.49405084 29.92369719 77.3202284 36 85 C40.39567992 83.49118538 42.29374618 80.10916152 44.6875 76.375 C45.33887939 75.37182739 45.33887939 75.37182739 46.00341797 74.34838867 C47.35438252 72.24342592 48.68203623 70.12576389 50 68 C50.59917236 67.03489502 50.59917236 67.03489502 51.21044922 66.05029297 C57.81876394 55.24401643 62.6633695 43.88339623 67 32 C67.2688501 31.28255615 67.5377002 30.5651123 67.81469727 29.82592773 C70.02162811 23.64860666 71.13961355 17.40014602 72.1875 10.9375 C72.36474609 9.88111328 72.54199219 8.82472656 72.72460938 7.73632812 C73.15618309 5.15854998 73.58116655 2.57987326 74 0 C84.95834595 5.24741683 91.89387611 16.83533149 96.09375 27.875 C96.81398373 30.23736662 97.42266906 32.59951871 98 35 C98.5878125 36.7325 98.5878125 36.7325 99.1875 38.5 C103.84501156 58.5631267 88.06012668 81.41902361 78 98 C76.40099945 100.40430833 74.75049706 102.70247261 73 105 C76.3 105.33 79.6 105.66 83 106 C83 106.33 83 106.66 83 107 C82.19175781 106.99097656 81.38351562 106.98195313 80.55078125 106.97265625 C74.42928109 106.94635893 74.42928109 106.94635893 69.125 109.51953125 C67.17869615 112.27100247 66.06692827 114.7992152 65 118 C65.57363281 118.25136719 66.14726562 118.50273437 66.73828125 118.76171875 C69.30080275 120.16468821 71.07320535 121.79550032 73.1875 123.8125 C87.08213134 136.50861781 102.88496077 147.51802998 118.8671875 157.41796875 C119.96289062 158.10503906 121.05859375 158.79210937 122.1875 159.5 C123.12980469 160.0671875 124.07210937 160.634375 125.04296875 161.21875 C127 163 127 163 127.42578125 165.59375 C127 168 127 168 125 170 C122.18010124 170.60447061 119.40746949 171.11848742 116.5625 171.5625 C115.02181379 171.81182266 113.48143447 172.06305105 111.94140625 172.31640625 C111.25763916 172.42412354 110.57387207 172.53184082 109.86938477 172.64282227 C107.78324097 172.99860435 107.78324097 172.99860435 105 174 C105.02320313 175.20398438 105.04640625 176.40796875 105.0703125 177.6484375 C105.08906863 179.22395215 105.10726899 180.79947348 105.125 182.375 C105.14175781 183.1690625 105.15851563 183.963125 105.17578125 184.78125 C105.19335473 186.85492015 105.10335168 188.92883241 105 191 C103 193 103 193 100.4921875 193.515625 C95.14756891 192.72648668 91.49573349 189.80420454 87.125 186.75 C86.19751953 186.11537842 85.27003906 185.48075684 84.31445312 184.8269043 C67.96539758 173.55950203 52.74124781 161.29378679 38 148 C34.37958555 149.54326422 31.96595232 151.73902705 29.125 154.4375 C17.32859938 165.39458361 4.16984762 174.77815379 -9 184 C-9.68255859 184.47872559 -10.36511719 184.95745117 -11.06835938 185.45068359 C-12.95012937 186.75705551 -14.84549933 188.03956232 -16.75 189.3125 C-17.81734375 190.03050781 -18.8846875 190.74851562 -19.984375 191.48828125 C-23.32873431 193.16479298 -25.31018034 193.47967656 -29 193 C-31 191 -31 191 -31.1953125 187.0859375 C-31.18200376 185.51550649 -31.15813602 183.94513779 -31.125 182.375 C-31.11597656 181.57320312 -31.10695312 180.77140625 -31.09765625 179.9453125 C-31.07406223 177.96341477 -31.03819065 175.98167019 -31 174 C-31.59538574 173.88930176 -32.19077148 173.77860352 -32.80419922 173.66455078 C-35.49604676 173.15940228 -38.18547354 172.64235775 -40.875 172.125 C-41.81214844 171.95097656 -42.74929687 171.77695313 -43.71484375 171.59765625 C-44.61074219 171.42363281 -45.50664062 171.24960938 -46.4296875 171.0703125 C-47.25710449 170.91320801 -48.08452148 170.75610352 -48.93701172 170.59423828 C-51 170 -51 170 -53 168 C-53.53125 165.6640625 -53.53125 165.6640625 -53 163 C-50.84152109 161.18266 -48.89430752 159.81335589 -46.5 158.375 C-45.11633792 157.49873592 -43.73355389 156.62108413 -42.3515625 155.7421875 C-41.63258789 155.29198242 -40.91361328 154.84177734 -40.17285156 154.37792969 C-36.68483838 152.16598066 -33.27701409 149.84139347 -29.875 147.5 C-28.87279419 146.81043213 -28.87279419 146.81043213 -27.8503418 146.10693359 C-17.70016312 139.0712252 -8.14056456 131.3924283 1.22265625 123.34765625 C3.43445049 121.4780524 5.65851102 119.70136969 8 118 C7.35965695 113.83777018 5.90844188 111.04371825 3 108 C-0.99974622 107.17448647 -4.92309523 107.01282046 -9 107 C-9 106.67 -9 106.34 -9 106 C-5.7 106 -2.4 106 1 106 C0.29875 104.87464844 -0.4025 103.74929687 -1.125 102.58984375 C-9.2591799 89.46662341 -16.79762894 76.56678713 -22.5 62.1875 C-22.8508667 61.32793701 -23.2017334 60.46837402 -23.56323242 59.58276367 C-27.95535762 48.05911212 -26.16625811 37.17896666 -21.3359375 26.03125 C-17.4029804 17.47757252 -12.80892127 10.60414168 -6 4 C-5.29359375 3.25234375 -4.5871875 2.5046875 -3.859375 1.734375 C-2 0 -2 0 0 0 Z " fill="#BA80E2" transform="translate(219,81)"/>
<path d="M0 0 C2.40189473 1.27888495 4.77106774 2.57323878 7.09765625 3.984375 C9.05635829 5.03008862 10.83225163 5.55582884 13 6 C13.08636719 6.81082031 13.17273438 7.62164062 13.26171875 8.45703125 C13.99124733 14.2062519 14.85156029 19.21888673 17.4375 24.4375 C23.82759293 37.42725809 23.29755147 50.72532669 22.78759766 64.78466797 C22.02158432 76.34577854 22.02158432 76.34577854 26.57958984 86.58544922 C30.13535619 90.12654757 33.96586439 92.66949727 38.25 95.25 C53.18496844 104.72680729 63.95584536 118.08549339 69.6328125 134.87109375 C71.91276945 148.0899931 69.84123503 161.20176731 62.19921875 172.33203125 C61.80347656 172.88246094 61.40773438 173.43289063 61 174 C60.443125 174.86625 59.88625 175.7325 59.3125 176.625 C52.13770135 183.99371213 43.19643153 187.21895057 33.10620117 187.43066406 C21.7100308 187.45679565 12.5914219 186.28619843 2 182 C1.19014648 181.76692139 0.38029297 181.53384277 -0.45410156 181.29370117 C-6.93244365 179.23818983 -9.59376585 176.68239909 -12.73876953 170.69335938 C-13.19622559 169.74267578 -13.65368164 168.79199219 -14.125 167.8125 C-14.63015137 166.81927734 -15.13530273 165.82605469 -15.65576172 164.80273438 C-16.66789481 162.7984721 -17.66576886 160.78693812 -18.6484375 158.76806641 C-19.79006956 156.42994786 -20.97203169 154.12435544 -22.1875 151.82421875 C-38.89182387 119.42220353 -45.43988896 82.49654591 -45.3125 46.375 C-45.31200653 45.41109344 -45.31151306 44.44718689 -45.31100464 43.45407104 C-45.28853439 29.1149269 -44.76063232 15.11442753 -42 1 C-41.80277344 -0.01191406 -41.60554688 -1.02382812 -41.40234375 -2.06640625 C-41.26957031 -2.70449219 -41.13679688 -3.34257812 -41 -4 C-40.34 -3.67 -39.68 -3.34 -39 -3 C-37.74896484 -3.45052734 -37.74896484 -3.45052734 -36.47265625 -3.91015625 C-24.57867066 -7.64291438 -10.8634892 -5.64595424 0 0 Z " fill="#FEC6AA" transform="translate(56,199)"/>
<path d="M0 0 C3.47706697 3.2144967 6.09672971 6.8158295 8.6875 10.75 C9.12320313 11.4104834 9.55890625 12.0709668 10.0078125 12.75146484 C14.71113232 19.97174241 18.99150079 27.37382601 23 35 C23.39687012 35.74894531 23.79374023 36.49789062 24.20263672 37.26953125 C29.96005148 48.28649626 34.48921216 59.60574316 38.4375 71.375 C38.85056396 72.59783691 39.26362793 73.82067383 39.68920898 75.08056641 C42.47633817 83.64173372 44.41425341 92.15073763 46 101 C44.87335938 100.67644531 43.74671875 100.35289062 42.5859375 100.01953125 C27.30309003 96.21730941 13.273062 99.45362797 -0.26879883 106.66235352 C-3.07435627 108.14344992 -4.77366944 109 -8 109 C-7.9175 110.27875 -7.835 111.5575 -7.75 112.875 C-7.75 117.5859423 -8.97191082 120.97783958 -10.84765625 125.25 C-14.94905255 135.03773897 -17.22401138 144.57937118 -16.921875 155.1796875 C-16.89461574 156.76430244 -16.86861313 158.3489394 -16.84375 159.93359375 C-16.80059432 162.40474662 -16.75000787 164.87473085 -16.67773438 167.34521484 C-16.21325768 183.97679821 -16.21325768 183.97679821 -20.65869141 189.63696289 C-24.5613259 193.60281808 -28.52770513 196.34346076 -33.25 199.25 C-38.28439625 202.37077697 -42.46940699 205.96107936 -46.7109375 210.08203125 C-51.23159254 213.86981559 -55.70443215 214.56886413 -61.45703125 214.44140625 C-65.94335558 213.66267407 -68.64560052 210.90968742 -72 208 C-77.77576367 203.61264106 -83.06018976 200.18475507 -90 198 C-85.76225817 192.75858248 -81.16324962 188.33759048 -76.07421875 183.91796875 C-73.21260887 181.2719227 -73.0287751 180.47638785 -72.7890625 176.5078125 C-72.76312012 175.80881836 -72.73717773 175.10982422 -72.71044922 174.38964844 C-72.13779003 159.21254377 -69.05425064 145.08403771 -58.125 133.75 C-55.05541138 130.45226628 -53.93264845 127.92475219 -53.82226562 123.40161133 C-54.00660217 120.91078915 -54.57562338 119.12045208 -55.484375 116.8046875 C-57.16500439 111.9769777 -57.4624894 107.64361533 -57.375 102.5625 C-57.36847412 101.73500244 -57.36194824 100.90750488 -57.35522461 100.05493164 C-57.20492879 93.19591585 -56.0843596 87.16871919 -53 81 C-52.19798251 75.72959934 -53.43436069 72.8198833 -55.9375 68.125 C-61.35947524 57.78572025 -61.35947524 57.78572025 -60 53 C-58.56035257 51.74287197 -57.11190064 50.492705 -55.59960938 49.32397461 C-48.08024558 43.10030095 -43.55774354 32.64889327 -39.91455078 23.82519531 C-37.40694297 18.01104735 -34.42349909 15.07902148 -28.9609375 11.76171875 C-26.54800621 10.82442472 -24.16125137 10.33017322 -21.625 9.8125 C-14.86756681 8.20438088 -5.07143838 5.07143838 0 0 Z " fill="#FEC6AA" transform="translate(451,96)"/>
<path d="M0 0 C-18.66494847 31.05318861 -41.8803508 56.47881139 -71 78 C-71.59635254 78.4424707 -72.19270508 78.88494141 -72.80712891 79.34082031 C-91.1753905 92.77424543 -112.46766444 102.82961784 -134 110 C-134.82516113 110.27779297 -135.65032227 110.55558594 -136.50048828 110.84179688 C-154.72701126 116.88530947 -173.80509263 120.84011816 -193 122 C-195.16055293 119.83944707 -194.29085868 115.10784871 -194.3125 112.125 C-194.28001461 99.11520457 -190.50890545 91.35745416 -183.07885742 80.91479492 C-179.27202055 75.53881565 -176.29286288 70.19850219 -174 64 C-173.54367187 62.82824219 -173.54367187 62.82824219 -173.078125 61.6328125 C-171.30580617 56.53321586 -170.80441469 51.82950967 -170.5625 46.4375 C-170.15873863 38.59186246 -168.70673718 33.20534666 -163.625 27.1875 C-157.87050709 22.39208924 -153.39314073 20.5278859 -146.15234375 18.92578125 C-142.83822641 17.95249028 -140.32195902 16.59739574 -137.375 14.8125 C-132.15665446 11.79293786 -127.95994974 10.80377563 -122 12 C-118.75212915 13.55627145 -116.53299758 15.476263 -113.9765625 17.98828125 C-103.07846015 28.47001092 -89.34948541 35.40480492 -74.0625 35.25 C-73.30259766 35.25773437 -72.54269531 35.26546875 -71.75976562 35.2734375 C-59.85118856 35.23275918 -48.37128657 30.73754571 -39.56640625 22.6328125 C-37.82940325 20.82217097 -36.23260145 18.92619217 -34.625 17 C-28.18859527 9.59603117 -20.51649928 6.20008692 -11.5625 2.5625 C-10.66120361 2.19576172 -9.75990723 1.82902344 -8.83129883 1.45117188 C-7.98075928 1.11794922 -7.13021973 0.78472656 -6.25390625 0.44140625 C-5.48377197 0.13920166 -4.7136377 -0.16300293 -3.92016602 -0.47436523 C-2 -1 -2 -1 0 0 Z " fill="#1D2E79" transform="translate(469,368)"/>
<path d="M0 0 C-0.93450035 2.88137609 -1.8996175 5.73932291 -2.98828125 8.56640625 C-5.08363601 14.04480652 -6.74047192 19.10775146 -7 25 C-7.08636719 26.15113281 -7.17273438 27.30226563 -7.26171875 28.48828125 C-8.00002977 42.22394251 -3.25768249 52.94816705 3 65 C4.32019942 68.83819567 4.2203422 72.79757527 4.25 76.8125 C4.270625 77.49892578 4.29125 78.18535156 4.3125 78.89257812 C4.35121952 84.00839445 3.24323825 87.40670262 1 92 C-2.3738453 101.23368186 -1.67729302 109.42148283 1.734375 118.4921875 C4.40471544 123.78341764 7.72349693 126.76069457 12.75 129.8125 C13.73484375 130.41707031 14.7196875 131.02164063 15.734375 131.64453125 C16.48203125 132.09183594 17.2296875 132.53914062 18 133 C16.78213502 143.31331228 10.31877706 152.09999229 3.89453125 159.9765625 C-1.96153667 169.32212243 -2.44452071 177.86897726 -2 188.6875 C-1.37506167 204.03754771 -1.37506167 204.03754771 -6 211 C-11.30339087 215.92457723 -14.86556101 216.35369455 -21.94921875 216.27734375 C-26.43814144 215.86925987 -28.46107573 214.80164838 -32 212 C-36.33696821 206.52172437 -37.15759522 202.74828573 -36.921875 195.90625 C-36.89609375 194.71 -36.8703125 193.51375 -36.84375 192.28125 C-36.78201338 189.79120637 -36.70429448 187.30149959 -36.609375 184.8125 C-36.42538542 174.04910928 -39.22400729 166.18148934 -45 157.1875 C-52.41787987 145.11903224 -53.83253804 133.80037637 -53 120 C-52.95488281 119.08992188 -52.90976563 118.17984375 -52.86328125 117.2421875 C-52.56306642 113.41278051 -51.76154264 110.16614434 -50.4375 106.5625 C-46.87975173 96.13954905 -49.95266044 88.76413044 -54.2734375 79.1484375 C-59.64585752 66.70826191 -60.40803346 50.20109625 -56.4375 37.25 C-49.95596214 21.63538606 -39.09817005 11.14557046 -24 4 C-20.36911811 2.69161488 -16.78521628 1.73671995 -13 1 C-11.9275 0.773125 -10.855 0.54625 -9.75 0.3125 C-6.48311991 -0.05873637 -3.28489229 -0.06569785 0 0 Z " fill="#FEC6AA" transform="translate(278,296)"/>
<path d="M0 0 C11.54121311 8.0713059 11.54121311 8.0713059 13.21484375 13.1953125 C13.45745113 14.89095546 13.67355139 16.59059806 13.86328125 18.29296875 C14.49737816 21.15345037 15.47290534 22.22685842 17.515625 24.296875 C25.95847893 32.98752758 31.14694967 45.78152314 31.5390625 57.78125 C31.56814697 58.53220947 31.59723145 59.28316895 31.62719727 60.05688477 C31.6766573 61.5567485 31.70180702 63.05767326 31.69897461 64.55834961 C31.84614983 70.25239526 33.35197141 72.65690853 37.390625 76.671875 C39.06839449 78.16873304 39.06839449 78.16873304 40.703125 79.359375 C51.8707495 88.7304686 59.20034907 103.61847916 60.62597656 118.05517578 C61.34139985 130.77581356 60.66755242 142.15615164 52.640625 152.671875 C45.51366801 159.97926129 34.36495473 164.11000445 24.3359375 164.91796875 C22.00441247 164.92127119 19.71376531 164.86066293 17.390625 164.671875 C17.91462891 163.33382812 17.91462891 163.33382812 18.44921875 161.96875 C18.90425781 160.79828125 19.35929687 159.6278125 19.828125 158.421875 C20.28058594 157.26171875 20.73304687 156.1015625 21.19921875 154.90625 C24.96146417 144.69267882 24.99711086 132.18474517 20.640625 122.140625 C20.228125 121.3259375 19.815625 120.51125 19.390625 119.671875 C18.978125 118.8571875 18.565625 118.0425 18.140625 117.203125 C11.13032761 104.61645469 1.90869168 95.75163232 -10.12890625 88.0625 C-15.97919703 84.29813379 -21.04840062 80.40842862 -23.609375 73.671875 C-23.74284938 71.04124925 -23.77086816 68.5231203 -23.69921875 65.8984375 C-23.67876103 64.334639 -23.65858844 62.77083674 -23.63867188 61.20703125 C-23.59562273 58.76757981 -23.54758099 56.32837933 -23.49291992 53.88916016 C-23.21776252 40.64636315 -23.84484551 28.43607589 -29.796875 16.296875 C-32.19650329 11.01056515 -33.38474814 7.43178975 -32.609375 1.671875 C-31.609375 -0.328125 -31.609375 -0.328125 -29.81640625 -1.1796875 C-19.90104301 -4.382366 -9.26557792 -5.46116844 0 0 Z " fill="#FEA97B" transform="translate(101.609375,205.328125)"/>
<path d="M0 0 C0.97055328 0.00215515 1.94110657 0.0043103 2.94107056 0.00653076 C17.26930898 0.0575666 31.29685782 0.40491562 45.375 3.3125 C46.35807129 3.51117676 47.34114258 3.70985352 48.35400391 3.91455078 C70.84108979 8.59133216 91.88211097 15.98236224 112.375 26.3125 C112.375 27.3025 112.375 28.2925 112.375 29.3125 C106.08633212 35.26083997 99.34408701 35.79993283 91.05859375 36.05859375 C80.32143874 36.79869457 70.7266925 42.38611992 63.5625 50.25 C60.68097361 53.72793534 58.45881974 57.3115661 56.375 61.3125 C55.715 61.3125 55.055 61.3125 54.375 61.3125 C53.11328125 59.80859375 53.11328125 59.80859375 51.6875 57.75 C42.39800953 45.05809374 28.0367434 35.96234042 12.375 33.3125 C-0.21665049 32.27543258 -12.93679255 32.11230729 -24.625 37.3125 C-25.62144531 37.71339844 -26.61789063 38.11429688 -27.64453125 38.52734375 C-38.71754624 43.4313106 -47.13441374 51.94926717 -54.625 61.3125 C-56.51663075 58.96687787 -58.39717775 56.62626027 -60.16796875 54.1875 C-67.08850573 44.81231032 -75.87539293 38.15591343 -87.625 36.3125 C-91.1331589 36.09093207 -94.64024307 35.93428538 -98.15234375 35.7890625 C-103.83283369 35.0095127 -107.94485021 32.7003709 -111.625 28.3125 C-111.625 27.6525 -111.625 26.9925 -111.625 26.3125 C-76.82331183 8.16653161 -39.08883247 -0.15640719 0 0 Z " fill="#1D2E79" transform="translate(255.625,-0.3125)"/>
<path d="M0 0 C1.59643555 1.41113281 1.59643555 1.41113281 3.13671875 3.203125 C3.71486328 3.85410156 4.29300781 4.50507812 4.88867188 5.17578125 C6.07177658 6.54001273 7.25156612 7.90712753 8.42773438 9.27734375 C11.70569871 12.9564702 14.33547415 15.29690363 18.8671875 17.3046875 C21.66565063 18.73982736 22.75851783 19.35225001 23.86938477 22.33203125 C24.26688662 25.2049675 24.40493977 27.97522396 24.4375 30.875 C24.51351422 32.81014156 24.59541694 34.74506199 24.68359375 36.6796875 C24.72291016 37.60023926 24.76222656 38.52079102 24.80273438 39.46923828 C25.06582774 42.84451781 25.89589764 45.80612605 27 49 C27.40476562 50.18335938 27.80953125 51.36671875 28.2265625 52.5859375 C33.37635847 66.73110791 39.41759905 80.11787864 47.67480469 92.73632812 C49.85043146 96.06661714 51.6922081 99.23470904 53 103 C38.31173156 103.62160384 28.26348968 100.68258725 17 91 C14.25739987 88.28038512 11.76359687 85.37051305 9.31640625 82.3828125 C3.97471183 76.8879835 -1.04732766 76.67110019 -8.37890625 76.52734375 C-9.53261719 76.51832031 -10.68632812 76.50929688 -11.875 76.5 C-26.49770574 76.38486058 -26.49770574 76.38486058 -33 73 C-34.55078125 71.01953125 -34.55078125 71.01953125 -35.3125 68.8125 C-35.60382813 68.01714844 -35.89515625 67.22179687 -36.1953125 66.40234375 C-36.59363281 65.21318359 -36.59363281 65.21318359 -37 64 C-37.56220416 62.62487901 -38.12468695 61.24987189 -38.6875 59.875 C-42.43529382 50.45317195 -42.93832167 35.82981632 -39.25 26.3125 C-32.25654475 11.88697559 -21.77760323 5.14598196 -7.171875 -0.1796875 C-3.96667438 -1.00861869 -2.98715217 -1.12360435 0 0 Z " fill="#FBDFD3" transform="translate(167,84)"/>
<path d="M0 0 C3.47706697 3.2144967 6.09672971 6.8158295 8.6875 10.75 C9.12320313 11.4104834 9.55890625 12.0709668 10.0078125 12.75146484 C14.71113232 19.97174241 18.99150079 27.37382601 23 35 C23.39687012 35.74894531 23.79374023 36.49789062 24.20263672 37.26953125 C29.96005148 48.28649626 34.48921216 59.60574316 38.4375 71.375 C38.85056396 72.59783691 39.26362793 73.82067383 39.68920898 75.08056641 C42.47633817 83.64173372 44.41425341 92.15073763 46 101 C44.87335938 100.67644531 43.74671875 100.35289062 42.5859375 100.01953125 C27.30309003 96.21730941 13.273062 99.45362797 -0.26879883 106.66235352 C-3.07435627 108.14344992 -4.77366944 109 -8 109 C-8.33 109.66 -8.66 110.32 -9 111 C-9.33773438 109.84242188 -9.67546875 108.68484375 -10.0234375 107.4921875 C-10.47389983 105.95310788 -10.92442394 104.41404633 -11.375 102.875 C-11.59671875 102.11445313 -11.8184375 101.35390625 -12.046875 100.5703125 C-13.00220196 97.31096169 -13.96949114 94.08633359 -15.1015625 90.8828125 C-17.90412761 81.89023401 -17.00678089 72.53479756 -16.78515625 63.2265625 C-16.69315197 55.3811068 -16.70275155 49.68516003 -22.125 43.625 C-23.07375 42.75875 -24.0225 41.8925 -25 41 C-35.15673289 31.0794702 -35.15673289 31.0794702 -38 27 C-38 26.34 -38 25.68 -38 25 C-38.66 24.67 -39.32 24.34 -40 24 C-36.80314037 17.80608447 -33.49163482 13.77595699 -27 11 C-24.12134368 10.22706616 -21.22743204 9.59258405 -18.31640625 8.953125 C-12.5635407 7.29976906 -4.29795401 4.29795401 0 0 Z " fill="#FEC7AB" transform="translate(451,96)"/>
<path d="M0 0 C14.22871255 13.14063453 18.16835415 32.8792354 19.05761719 51.4453125 C19.16946032 55.94837374 19.1094227 60.43567226 18.9375 64.9375 C-15.46951107 62.07370776 -52.11817406 39.23519795 -78.0625 17.9375 C-79.00391846 17.17228027 -79.00391846 17.17228027 -79.96435547 16.39160156 C-81.94541622 14.77367887 -83.91249969 13.14036898 -85.875 11.5 C-86.49294434 10.99138428 -87.11088867 10.48276855 -87.74755859 9.95874023 C-89.2448186 8.68450824 -90.66181411 7.3171861 -92.0625 5.9375 C-92.0625 4.9475 -92.0625 3.9575 -92.0625 2.9375 C-63.82966096 -8.37869628 -26.77167097 -21.41733677 0 0 Z " fill="#29418A" transform="translate(179.0625,418.0625)"/>
<path d="M0 0 C0.81597656 0.54527344 1.63195312 1.09054688 2.47265625 1.65234375 C9.32923202 5.53961007 15.83089566 5.62344805 23.53515625 4.58984375 C27.58729309 3.30924478 30.62177524 1.25204498 34.03515625 -1.22265625 C37.74398366 -2.98434927 40.74223443 -2.6004881 44.53515625 -1.41015625 C48.05326395 0.12491869 50.8900253 1.78386025 53.53515625 4.58984375 C54.6592117 7.72020746 54.1160534 10.36470275 53.53515625 13.58984375 C53.30892578 15.17925781 53.30892578 15.17925781 53.078125 16.80078125 C48.47879735 44.15936251 35.2283723 70.39421633 17.53515625 91.58984375 C13.42141728 90.07178973 11.39687707 87.18790318 8.97265625 83.71484375 C8.32901123 82.79759521 8.32901123 82.79759521 7.67236328 81.86181641 C-5.35690807 62.82844601 -15.53818213 41.42057633 -19.46484375 18.58984375 C-19.64563477 17.59452637 -19.64563477 17.59452637 -19.83007812 16.57910156 C-21.59803219 6.21153278 -21.59803219 6.21153278 -19.1328125 2.68359375 C-17.29507792 1.30629376 -15.59345654 0.43779217 -13.46484375 -0.41015625 C-12.61921875 -0.86390625 -11.77359375 -1.31765625 -10.90234375 -1.78515625 C-6.87680052 -2.81734682 -3.58123554 -2.04885266 0 0 Z " fill="#FDC6AB" transform="translate(239.46484375,75.41015625)"/>
<path d="M0 0 C0.12677124 0.88800293 0.12677124 0.88800293 0.25610352 1.79394531 C3.29436018 22.44692772 9.01944296 40.67409111 19 59 C19.32081543 59.60005859 19.64163086 60.20011719 19.97216797 60.81835938 C24.9448591 70.08185916 30.74498373 78.56598216 37 87 C29.22812232 98.01016005 19.61639252 107.60216185 10 117 C6.07518797 112.12781955 6.07518797 112.12781955 4.75 109.875 C2.26836875 107.21610937 0.38129318 107.40349648 -3.1875 107.25 C-4.27417969 107.19328125 -5.36085937 107.1365625 -6.48046875 107.078125 C-7.31191406 107.05234375 -8.14335937 107.0265625 -9 107 C-9 106.67 -9 106.34 -9 106 C-5.7 106 -2.4 106 1 106 C0.29875 104.87464844 -0.4025 103.74929687 -1.125 102.58984375 C-9.2591799 89.46662341 -16.79762894 76.56678713 -22.5 62.1875 C-22.8508667 61.32793701 -23.2017334 60.46837402 -23.56323242 59.58276367 C-27.95535762 48.05911212 -26.16625811 37.17896666 -21.3359375 26.03125 C-17.4029804 17.47757252 -12.80892127 10.60414168 -6 4 C-5.29359375 3.25234375 -4.5871875 2.5046875 -3.859375 1.734375 C-2 0 -2 0 0 0 Z " fill="#9957BC" transform="translate(219,81)"/>
<path d="M0 0 C5.94394082 1.59614885 10.84416775 4.6555426 16.0625 7.8125 C16.94744141 8.33392578 17.83238281 8.85535156 18.74414062 9.39257812 C23.42099482 12.20290086 27.3683707 14.91536081 31 19 C25.2015499 26.56486536 18.80225567 30.70133421 10.29296875 34.796875 C-6.47953703 42.87397148 -19.7414751 53.01785081 -31.6875 67.375 C-35.15620793 71.45884825 -39.28616219 74.46547214 -44 77 C-44.66 77 -45.32 77 -46 77 C-46.09704224 76.0570105 -46.09704224 76.0570105 -46.19604492 75.0949707 C-47.93385905 56.27691084 -47.93385905 56.27691084 -55.234375 39.0546875 C-56.25 37.375 -56.25 37.375 -57 34 C-55.22205383 29.89233127 -52.75540987 26.50782876 -50 23 C-49.23623047 22.00226562 -49.23623047 22.00226562 -48.45703125 20.984375 C-43.10650825 14.87735132 -33.12146151 9.28315962 -25 8 C-22.58397405 7.89979616 -20.16713254 7.81850173 -17.75 7.75 C-12.05334511 7.49759479 -7.97450565 6.60927262 -3.41796875 3.05859375 C-2 2 -2 2 0 2 C0 1.34 0 0.68 0 0 Z " fill="#FEC6AB" transform="translate(368,27)"/>
<path d="M0 0 C0.33 0.66 0.66 1.32 1 2 C1.59425781 2.29261719 2.18851562 2.58523437 2.80078125 2.88671875 C5.39203387 4.19845409 7.08552021 5.80724848 9.1875 7.8125 C23.08213134 20.50861781 38.88496077 31.51802998 54.8671875 41.41796875 C55.96289062 42.10503906 57.05859375 42.79210937 58.1875 43.5 C59.12980469 44.0671875 60.07210937 44.634375 61.04296875 45.21875 C63 47 63 47 63.42578125 49.59375 C63 52 63 52 61 54 C58.18010124 54.60447061 55.40746949 55.11848742 52.5625 55.5625 C51.02181379 55.81182266 49.48143447 56.06305105 47.94140625 56.31640625 C47.25763916 56.42412354 46.57387207 56.53184082 45.86938477 56.64282227 C43.78324097 56.99860435 43.78324097 56.99860435 41 58 C41.02320313 59.20398438 41.04640625 60.40796875 41.0703125 61.6484375 C41.08906863 63.22395215 41.10726899 64.79947348 41.125 66.375 C41.14175781 67.1690625 41.15851563 67.963125 41.17578125 68.78125 C41.19335473 70.85492015 41.10335168 72.92883241 41 75 C39 77 39 77 36.4921875 77.515625 C31.14756891 76.72648668 27.49573349 73.80420454 23.125 70.75 C22.19751953 70.11537842 21.27003906 69.48075684 20.31445312 68.8269043 C3.57348486 57.28940457 -11.99918638 44.71406211 -27 31 C-23.72056015 27.04785454 -20.36765608 23.33330987 -16.6875 19.75 C-10.52625892 13.67215981 -5.14901157 6.94630806 0 0 Z " fill="#9756BB" transform="translate(283,197)"/>
<path d="M0 0 C0.66 0 1.32 0 2 0 C3.22157583 1.43415398 4.37667537 2.92515516 5.5 4.4375 C9.18322904 9.19135685 13.19660144 13.04205426 17.80078125 16.89453125 C22.04529685 20.95810835 23.91480805 25.0315056 24.08178711 30.84985352 C24.0638208 31.93194092 24.04585449 33.01402832 24.02734375 34.12890625 C24.00897461 35.93004883 24.00897461 35.93004883 23.99023438 37.76757812 C23.95545722 40.27024551 23.91648904 42.77285865 23.87304688 45.27539062 C23.77916002 55.64160364 24.89605356 64.81782328 28.625 74.5 C31 80.70520231 31 80.70520231 31 84 C27.53058454 83.54177532 24.32604951 83.10868317 21 82 C11.09208177 80.97009797 4.08164546 82.09323161 -4 88 C-7.12827398 90.54457271 -10.1099534 93.18844849 -13 96 C-16.94057505 90.08913743 -17.35676538 84.64654603 -17.3125 77.75 C-17.31048584 76.90896729 -17.30847168 76.06793457 -17.30639648 75.20141602 C-17.19449986 68.26985544 -16.11808997 62.23617993 -13 56 C-12.19798251 50.72959934 -13.43436069 47.8198833 -15.9375 43.125 C-21.35947524 32.78572025 -21.35947524 32.78572025 -20 28 C-18.56338845 26.75452561 -17.11822384 25.51608773 -15.61279297 24.35473633 C-8.56018273 18.43058643 -3.7082687 8.25509063 0 0 Z " fill="#FEA97B" transform="translate(411,121)"/>
<path d="M0 0 C0.66 0 1.32 0 2 0 C2.4846875 0.96679688 2.969375 1.93359375 3.46875 2.9296875 C9.99204193 16.1968061 9.99204193 16.1968061 20.2265625 26.51953125 C20.81179687 27.00808594 21.39703125 27.49664062 22 28 C22.19064501 34.0053178 20.72939608 37.83962904 17.9375 43.125 C15.53365354 47.68421841 14.07426946 50.75419363 15 56 C15.93578995 58.35981813 16.93347808 60.69631264 18 63 C19.28082876 67.69350672 19.21976193 72.41946881 19.25 77.25 C19.270625 78.05824219 19.29125 78.86648437 19.3125 79.69921875 C19.35050944 85.63819451 18.19340945 90.49166404 16 96 C15.030625 95.13375 14.06125 94.2675 13.0625 93.375 C5.41736979 86.8308926 -1.59938282 81.70510047 -11.9375 81.75 C-13.12214844 81.74484375 -14.30679688 81.7396875 -15.52734375 81.734375 C-19.01456963 82.00111444 -21.7177269 82.84960665 -25 84 C-26.32 84 -27.64 84 -29 84 C-27.74681885 77.73409427 -26.01621046 71.82737777 -23.90234375 65.796875 C-22.2928116 60.80802211 -21.90021085 56.44071481 -22.0078125 51.1953125 C-22.02457031 49.88949219 -22.04132813 48.58367187 -22.05859375 47.23828125 C-22.08947147 45.18221727 -22.12496442 43.12657572 -22.17138672 41.07080078 C-22.39090274 30.78807847 -22.22194648 23.80750971 -15 16 C-13.73678747 14.90779004 -12.46509531 13.8253505 -11.1875 12.75 C-7.31440875 9.47054143 -4.39774997 5.83547031 -1.4453125 1.72265625 C-0.96835938 1.15417969 -0.49140625 0.58570312 0 0 Z " fill="#F6955B" transform="translate(99,121)"/>
<path d="M0 0 C-0.49371094 0.75925781 -0.98742187 1.51851562 -1.49609375 2.30078125 C-2.45708984 3.79158203 -2.45708984 3.79158203 -3.4375 5.3125 C-4.39462891 6.79169922 -4.39462891 6.79169922 -5.37109375 8.30078125 C-8.07709864 12.78483252 -8.5381771 16.8530699 -8 22 C-6.25568665 26.68210426 -3.86480974 29.83788294 0 33 C5.52816133 34.76358521 11.20046664 36.10658885 16.83398438 37.5 C21.77687075 38.77687075 21.77687075 38.77687075 24 41 C22.06453884 42.14927384 20.12655872 43.29430642 18.1875 44.4375 C17.10855469 45.07558594 16.02960938 45.71367188 14.91796875 46.37109375 C8.58195544 49.90806503 1.09155337 50.24011884 -6 49 C-9.65121018 47.62331419 -12.84715591 45.57967698 -16.09765625 43.43359375 C-19.66125788 41.67337599 -21.2315151 41.90657995 -25 43 C-38.76654798 48.46756515 -48.96806884 60.80328964 -54.8125 74 C-58.47990786 82.62183455 -60.11336708 90.69035439 -61 100 C-61.33 100 -61.66 100 -62 100 C-66.27241463 75.85322803 -66.46915341 49.36169941 -53 28 C-40.74983003 11.08528915 -21.30171248 -1.24760572 0 0 Z " fill="#CD9BF5" transform="translate(254,32)"/>
<path d="M0 0 C2.0625 1.375 2.0625 1.375 4.625 3.4375 C8.52447736 6.53708457 11.78620528 6.52691616 16.625 6.75 C26.89408717 7.45712111 35.83154149 9.90103455 44.0625 16.375 C45.34375 18.56640625 45.34375 18.56640625 46.0625 20.375 C45.37285156 20.59414063 44.68320313 20.81328125 43.97265625 21.0390625 C34.82189441 24.1269739 26.38495407 27.61668416 21.859375 36.65234375 C20.26130417 42.11241908 20.70248843 47.75081932 21.0625 53.375 C17.52221359 51.79599902 14.72764556 49.64047062 11.6875 47.25 C3.25354334 40.78160631 -5.88426823 35.82223621 -15.4375 31.1875 C-22.43039081 27.73754988 -26.88605935 24.07545953 -30.9375 17.375 C-25.15085764 13.14053935 -19.21113852 9.24448558 -13.0625 5.5625 C-12.42046631 5.17779541 -11.77843262 4.79309082 -11.11694336 4.39672852 C-2.40469074 -0.77570669 -2.40469074 -0.77570669 0 0 Z " fill="#FEA97B" transform="translate(143.9375,27.625)"/>
<path d="M0 0 C5.12323988 0.89881401 9.56665232 2.17917251 14.33618164 4.29003906 C25.49244284 9.15729424 33.65929095 9.44588355 45.19677734 5.12548828 C48.76588925 3.72374983 52.30420995 2.25459219 55.82446289 0.734375 C58 0 58 0 62 0 C60.73026725 6.58550507 58.8503644 12.34682696 56.0625 18.4375 C55.6713501 19.29714355 55.2802002 20.15678711 54.87719727 21.04248047 C48.83811346 33.97372642 41.42731447 46.24907977 32 57 C27.88619114 55.48192019 25.86187704 52.59800664 23.4375 49.125 C23.00912842 48.51495117 22.58075684 47.90490234 22.1394043 47.27636719 C0 14.94987485 0 14.94987485 0 0 Z " fill="#FBDED3" transform="translate(225,110)"/>
<path d="M0 0 C10.95834595 5.24741683 17.89387611 16.83533149 22.09375 27.875 C22.81398373 30.23736662 23.42266906 32.59951871 24 35 C24.5878125 36.7325 24.5878125 36.7325 25.1875 38.5 C28.6336484 53.34494694 20.8521037 67.17052924 14 80 C13.67 80 13.34 80 13 80 C12.85304688 78.60201172 12.85304688 78.60201172 12.703125 77.17578125 C10.66412202 58.63115671 10.66412202 58.63115671 0 44 C-2.62845632 42.3842589 -5.14251594 41.20315118 -8 40 C-7.61235967 35.73595642 -7.08869325 31.98472866 -5.59375 27.96875 C-3.68326504 22.39817805 -2.75301151 16.73793093 -1.8125 10.9375 C-1.63525391 9.88111328 -1.45800781 8.82472656 -1.27539062 7.73632812 C-0.84381691 5.15854998 -0.41883345 2.57987326 0 0 Z " fill="#9A58BC" transform="translate(293,81)"/>
<path d="M0 0 C4.15527689 1.3850923 5.14930682 4.24522616 7.1875 7.875 C11.07147655 14.58881142 15.29056095 20.82768343 20 27 C12.22812232 38.01016005 2.61639252 47.60216185 -7 57 C-10.92481203 52.12781955 -10.92481203 52.12781955 -12.25 49.875 C-14.73163125 47.21610937 -16.61870682 47.40349648 -20.1875 47.25 C-21.27417969 47.19328125 -22.36085937 47.1365625 -23.48046875 47.078125 C-24.31191406 47.05234375 -25.14335937 47.0265625 -26 47 C-26 46.67 -26 46.34 -26 46 C-22.7 46 -19.4 46 -16 46 C-16.78246094 44.74703125 -17.56492188 43.4940625 -18.37109375 42.203125 C-19.39350724 40.55225552 -20.41562738 38.90120433 -21.4375 37.25 C-21.95376953 36.425 -22.47003906 35.6 -23.00195312 34.75 C-23.49501953 33.95078125 -23.98808594 33.1515625 -24.49609375 32.328125 C-25.17949829 31.22839355 -25.17949829 31.22839355 -25.87670898 30.10644531 C-26.97720711 28.04274225 -27.63818463 26.30731956 -28 24 C-25.77299867 21.77299867 -20.99928123 22.09978189 -17.98046875 21.6953125 C-14.88745271 20.97374388 -13.41344958 19.98499449 -11 18 C-10.34 18 -9.68 18 -9 18 C-8.74476563 17.48953125 -8.48953125 16.9790625 -8.2265625 16.453125 C-4.11328125 8.2265625 -4.11328125 8.2265625 0 0 Z " fill="#8441AF" transform="translate(236,141)"/>
<path d="M0 0 C1.36547974 0.00483398 1.36547974 0.00483398 2.75854492 0.00976562 C9.99012392 0.15896316 16.01458364 1.37179966 22.625 4.4375 C20.00649638 6.44091888 17.35434818 8.30885355 14.5625 10.0625 C13.55509766 10.70058594 13.55509766 10.70058594 12.52734375 11.3515625 C6.73505077 14.65804597 -0.91833953 14.6596428 -7.375 13.4375 C-12.44397564 11.50526671 -16.93028509 8.50565451 -21.375 5.4375 C-20.375 3.4375 -20.375 3.4375 -18.45458984 2.60131836 C-12.20274905 0.69222384 -6.52626624 -0.07254766 0 0 Z " fill="#22317B" transform="translate(255.375,67.5625)"/>
<path d="M0 0 C0.33 0.66 0.66 1.32 1 2 C1.57621094 2.27972656 2.15242188 2.55945313 2.74609375 2.84765625 C5.62194818 4.31798044 7.6862371 6.25477888 10.0625 8.4375 C10.91972656 9.21996094 11.77695312 10.00242188 12.66015625 10.80859375 C14.47596434 12.50920867 16.25843926 14.22417904 18 16 C16.9275 15.67 15.855 15.34 14.75 15 C5.14627336 12.64564726 -3.73067698 13.93455459 -13 17 C-9.21168028 10.90574654 -4.58506716 5.50599945 0 0 Z " fill="#8240AE" transform="translate(283,197)"/>
</svg>
